<?xml version="1.0" standalone="no"?>
<!DOCTYPE svg PUBLIC "-//W3C//DTD SVG 20010904//EN"
 "http://www.w3.org/TR/2001/REC-SVG-20010904/DTD/svg10.dtd">
<svg version="1.0" xmlns="http://www.w3.org/2000/svg"
 width="2275.000000pt" height="2253.000000pt" viewBox="0 0 2275.000000 2253.000000"
 preserveAspectRatio="xMidYMid meet">

<g transform="translate(0.000000,2253.000000) scale(0.100000,-0.100000)"
fill="#000000" stroke="none">
<path d="M10395 18551 c-4962 -2874 -6851 -3963 -6853 -3952 -1 9 234 1787
522 3951 289 2164 523 3936 521 3938 -7 8 -2340 -926 -2348 -940 -11 -19
-2229 -10418 -2225 -10434 3 -15 2788 -2017 2796 -2010 2 3 160 1181 351 2620
191 1438 350 2618 353 2621 4 5 6085 -3605 6115 -3629 1 -1 -97 -750 -218
-1666 -121 -916 -260 -1975 -309 -2355 -50 -379 -146 -1106 -214 -1615 l-123
-925 854 -2050 c471 -1127 859 -2061 864 -2074 5 -13 12 -22 14 -19 6 5 348
2394 940 6563 218 1535 399 2797 403 2806 6 13 500 -278 2557 -1502 2458
-1464 2550 -1520 2548 -1546 -1 -16 -113 -768 -248 -1672 -135 -905 -242
-1648 -238 -1652 12 -10 2365 -1080 2369 -1077 2 2 93 690 204 1528 110 839
202 1528 203 1532 1 3 781 -457 1732 -1024 952 -566 1739 -1034 1750 -1040 18
-9 18 -9 5 5 -8 8 -775 616 -1705 1352 -929 735 -1691 1344 -1693 1354 -1 9
225 1739 503 3844 278 2106 505 3838 505 3850 0 12 -388 952 -862 2090 -605
1452 -865 2063 -870 2050 -7 -17 -1175 -7863 -1393 -9357 -58 -396 -106 -721
-108 -723 -2 -2 -1124 884 -2493 1968 -2030 1607 -2489 1975 -2487 1993 1 11
102 720 224 1574 122 854 220 1555 218 1556 -13 11 -2284 1085 -2287 1081 -3
-2 -78 -559 -167 -1237 -89 -678 -164 -1241 -166 -1252 -3 -14 -256 181 -1157
895 -634 502 -1149 916 -1145 920 5 4 1650 803 3658 1774 2007 971 3657 1773
3666 1783 15 16 2299 4056 2299 4067 0 3 -3 5 -7 4 -5 0 -3090 -1786 -6858
-3968z"/>
</g>
</svg>
