<?xml version="1.0" standalone="no"?>
<!DOCTYPE svg PUBLIC "-//W3C//DTD SVG 20010904//EN"
 "http://www.w3.org/TR/2001/REC-SVG-20010904/DTD/svg10.dtd">
<svg version="1.0" xmlns="http://www.w3.org/2000/svg"
 width="457.000000pt" height="457.000000pt" viewBox="0 0 457.000000 457.000000"
 preserveAspectRatio="xMidYMid meet">

<g transform="translate(0.000000,457.000000) scale(0.100000,-0.100000)"
fill="#000000" stroke="none">
<path d="M1700 4267 c0 -203 -3 -246 -16 -265 -15 -22 -17 -22 -295 -22 l-279
0 0 -1235 0 -1235 1190 0 1190 0 0 427 0 428 -338 -338 c-186 -185 -341 -337
-344 -337 -4 0 -104 -25 -222 -55 -250 -65 -269 -64 -329 5 l-34 40 -404 0
c-426 0 -429 0 -429 45 0 45 3 45 431 45 l407 0 11 33 c6 17 26 97 46 176 20
79 43 160 51 180 9 23 101 122 247 269 l232 232 -687 0 c-422 0 -697 4 -712
10 -20 7 -26 17 -26 38 0 15 5 33 12 40 9 9 192 12 763 12 l750 0 288 288 287
288 -2 557 -3 557 -28 27 -27 28 -865 3 -865 2 0 -243z m1498 -39 c7 -7 12
-25 12 -40 0 -21 -6 -31 -26 -38 -15 -6 -276 -10 -672 -10 -570 0 -650 2 -670
16 -26 18 -28 46 -6 68 14 14 89 16 683 16 505 0 670 -3 679 -12z m-14 -488
c20 -7 26 -17 26 -38 0 -15 -5 -33 -12 -40 -17 -17 -1779 -17 -1796 0 -21 21
-15 68 11 78 31 12 1738 13 1771 0z m-576 -502 c7 -7 12 -21 12 -33 0 -46 8
-45 -615 -45 -623 0 -615 -1 -615 45 0 12 5 26 12 33 17 17 1189 17 1206 0z
m590 0 c7 -7 12 -21 12 -33 0 -41 -16 -45 -176 -45 -125 0 -155 3 -168 16 -19
18 -20 28 -6 55 10 18 23 19 168 19 110 0 162 -4 170 -12z m-968 -988 c24 -24
24 -29 4 -58 l-15 -22 -395 0 c-253 0 -402 4 -415 10 -25 14 -26 65 -1 79 11
7 162 11 410 11 379 0 393 -1 412 -20z"/>
<path d="M1381 4267 l-215 -192 214 -3 c117 -1 215 -1 217 1 2 2 2 90 1 195
l-3 190 -214 -191z"/>
<path d="M310 3798 c-50 -14 -97 -53 -120 -98 -20 -39 -20 -56 -18 -1334 l3
-1294 31 -39 c16 -21 50 -48 74 -60 l44 -23 1976 0 1976 0 44 22 c24 13 58 40
74 61 l31 39 3 1294 c2 1278 2 1295 -18 1334 -25 49 -72 85 -130 100 -30 7
-156 10 -370 8 l-325 -3 -3 -137 -3 -138 306 0 305 0 0 -1060 0 -1060 -1890 0
-1890 0 0 1060 0 1060 305 0 306 0 -3 138 -3 137 -335 2 c-199 1 -349 -3 -370
-9z"/>
<path d="M3725 3409 c-16 -4 -56 -34 -87 -66 l-58 -58 175 -175 175 -174 45
44 c25 25 55 64 67 88 18 39 19 48 9 84 -23 75 -234 272 -287 267 -5 0 -22 -5
-39 -10z"/>
<path d="M2990 2695 l-525 -525 70 -70 70 -70 525 525 525 525 -70 70 -70 70
-525 -525z"/>
<path d="M3192 2487 l-522 -522 68 -68 c37 -37 72 -67 77 -67 6 0 244 234 530
520 l520 520 -70 70 c-38 38 -72 70 -75 70 -3 0 -240 -235 -528 -523z"/>
<path d="M2392 2014 c-83 -315 -84 -325 -34 -332 19 -3 311 68 355 86 14 6
-12 36 -141 166 l-159 158 -21 -78z"/>
<path d="M1608 598 l-3 -263 -117 -5 c-160 -7 -162 -9 -166 -165 l-4 -115 982
0 982 0 -4 115 c-4 156 -6 158 -166 165 l-117 5 -3 263 -2 262 -690 0 -690 0
-2 -262z"/>
</g>
</svg>
