<svg width="525" height="523" viewBox="0 0 525 523" fill="none" xmlns="http://www.w3.org/2000/svg">
<g clip-path="url(#clip0_203_23)">
<path d="M239.885 92.3665C125.377 159.082 81.7846 184.362 81.7385 184.106C81.7154 183.897 87.1385 142.624 93.7846 92.3897C100.454 42.1557 105.854 1.02136 105.808 0.974936C105.646 0.789228 51.8077 22.4706 51.6231 22.7956C51.3692 23.2367 0.184611 264.634 0.276919 265.005C0.34615 265.353 64.6154 311.827 64.8 311.664C64.8461 311.595 68.4923 284.249 72.9 250.845C77.3077 217.464 80.9769 190.072 81.0461 190.002C81.1385 189.886 221.469 273.687 222.162 274.244C222.185 274.267 219.923 291.654 217.131 312.918C214.338 334.181 211.131 358.765 210 367.586C208.846 376.384 206.631 393.26 205.062 405.075L202.223 426.548L221.931 474.136C232.8 500.297 241.754 521.979 241.869 522.28C241.985 522.582 242.146 522.791 242.192 522.721C242.331 522.605 250.223 467.148 263.885 370.371C268.915 334.739 273.092 305.443 273.185 305.234C273.323 304.932 284.723 311.688 332.192 340.101C388.915 374.085 391.038 375.385 390.992 375.989C390.969 376.36 388.385 393.817 385.269 414.802C382.154 435.81 379.685 453.058 379.777 453.151C380.054 453.383 434.354 478.221 434.446 478.152C434.492 478.105 436.592 462.134 439.154 442.681C441.692 423.205 443.815 407.211 443.838 407.118C443.862 407.049 461.862 417.727 483.808 430.889C505.777 444.028 523.938 454.892 524.192 455.031C524.608 455.24 524.608 455.24 524.308 454.915C524.123 454.729 506.423 440.615 484.962 423.53C463.523 406.468 445.938 392.331 445.892 392.099C445.869 391.89 451.085 351.731 457.5 302.866C463.915 253.979 469.154 213.773 469.154 213.494C469.154 213.216 460.2 191.395 449.262 164.978C435.3 131.272 429.3 117.089 429.185 117.391C429.023 117.785 402.069 299.918 397.038 334.599C395.7 343.792 394.592 351.336 394.546 351.383C394.5 351.429 368.608 330.862 337.015 305.698C290.169 268.394 279.577 259.852 279.623 259.434C279.646 259.179 281.977 242.72 284.792 222.896C287.608 203.072 289.869 186.799 289.823 186.776C289.523 186.52 237.115 161.589 237.046 161.682C236.977 161.728 235.246 174.658 233.192 190.397C231.138 206.136 229.408 219.205 229.362 219.46C229.292 219.785 223.454 215.259 202.662 198.684C188.031 187.031 176.146 177.421 176.238 177.328C176.354 177.235 214.315 158.687 260.654 136.147C306.969 113.607 345.046 94.9896 345.254 94.7574C345.6 94.386 398.308 0.60352 398.308 0.348171C398.308 0.278531 398.238 0.232104 398.146 0.255317C398.031 0.255317 326.838 41.7146 239.885 92.3665Z" fill="white"/>
</g>
<defs>
<clipPath id="clip0_203_23">
<rect width="525" height="523" fill="white"/>
</clipPath>
</defs>
</svg>
